<?xml version="1.0" encoding="UTF-8"?>
<svg width="250px" height="250px" viewBox="0 0 250 250" version="1.1" xmlns="http://www.w3.org/2000/svg" xmlns:xlink="http://www.w3.org/1999/xlink">
    <!-- Generator: Sketch 43.2 (39069) - http://www.bohemiancoding.com/sketch -->
    <title>icon</title>
    <desc>Created with Sketch.</desc>
    <defs>
        <path d="M72.8065827,20.0684775 C78.5446046,16.755629 87.8474489,16.7554401 93.5857981,20.0684775 L156.002773,56.1049349 C161.740795,59.4177833 166.392381,67.4741884 166.392381,74.1002632 L166.392381,146.173178 C166.392381,152.798875 161.741122,160.855469 156.002773,164.168506 L93.5857981,200.204964 C87.8477762,203.517812 78.5449318,203.518001 72.8065827,200.204964 L10.3896077,164.168506 C4.6515858,160.855658 6.9830062e-14,152.799253 6.61444209e-14,146.173178 L2.60550909e-14,74.1002632 C2.236966e-14,67.4745663 4.65125855,59.4179723 10.3896077,56.1049349 L72.8065827,20.0684775 Z" id="path-1"></path>
        <path d="M18.4001995,0.774648787 C19.8360297,-0.0591618207 22.1532046,-0.0654136587 23.5998005,0.774648787 L38.7642113,9.58087605 C40.2000414,10.4146867 41.3640118,12.4299941 41.3640118,14.0860956 L41.3640118,31.746597 C41.3640118,33.4009504 40.2108072,35.4117541 38.7642113,36.2518165 L23.5998005,45.0580438 C22.1639703,45.8918544 19.8467954,45.8981062 18.4001995,45.0580438 L3.23578871,36.2518165 C1.79995856,35.4180059 0.635988244,33.4026985 0.635988244,31.746597 L0.635988244,14.0860956 C0.635988244,12.4317422 1.78919283,10.4209385 3.23578871,9.58087605 L18.4001995,0.774648787 Z" id="path-2"></path>
        <path d="M0.174966934,57.6198636 C0.174966934,89.4158235 26.153616,115.192019 58.1989676,115.192019 L58.1989676,115.192019 C81.7710331,115.192019 102.060104,101.245751 111.142228,81.2155864 L111.142228,81.2155864 C108.612695,73.5456078 106.423638,60.0513883 115.154645,46.5630345 L115.154645,46.5630345 C114.781067,44.6578578 114.312913,42.7867022 113.755304,40.95426 L113.755304,40.95426 C86.9822105,67.3377507 65.3663068,69.8087711 49.0916234,69.3786204 L49.0916234,69.3786204 C48.9410888,69.3739278 48.393726,69.2859424 48.2483143,68.960201 L48.2483143,68.960201 C48.2483143,68.960201 48.0110844,67.9051586 48.704647,67.9051586 L48.704647,67.9051586 C79.8846216,67.9051586 97.6425832,49.7000065 112.150652,36.3887966 L112.150652,36.3887966 C111.35936,34.4097122 110.460093,32.4853742 109.460733,30.6208664 L109.460733,30.6208664 C93.8208955,26.3514248 87.8105449,13.6400797 85.6770517,6.89922668 L85.6770517,6.89922668 C77.4981357,2.52733107 68.1405573,0.0465344882 58.1989676,0.0465344882 L58.1989676,0.0465344882 C26.153616,0.0465344882 0.174966934,25.8227305 0.174966934,57.6198636 L0.174966934,57.6198636 Z M73.9944622,17.3960777 C73.9944622,17.3960777 96.1463007,15.0040485 102.670124,42.166112 L102.670124,42.166112 C78.4636064,40.5096406 73.9944622,17.3960777 73.9944622,17.3960777 L73.9944622,17.3960777 Z M65.1314412,28.8251826 C65.1314412,28.8251826 84.7706915,28.1744818 89.2414119,52.544867 L89.2414119,52.544867 C67.980959,49.492361 65.1314412,28.8251826 65.1314412,28.8251826 L65.1314412,28.8251826 Z M54.343784,38.5106129 C54.343784,38.5106129 72.0178088,37.3660209 76.5405464,59.1879585 L76.5405464,59.1879585 C57.3288617,57.0442437 54.343784,38.5106129 54.343784,38.5106129 L54.343784,38.5106129 Z M102.670124,42.166112 C102.695345,42.1676762 102.718201,42.1692403 102.743421,42.1711956 L102.743421,42.1711956 L102.690222,42.2505779 C102.683522,42.2224226 102.676823,42.1942673 102.670124,42.166112 L102.670124,42.166112 Z M44.9389172,46.2075736 C44.9389172,46.2075736 60.4684148,45.1998478 64.4433956,64.3747942 L64.4433956,64.3747942 C47.562239,62.4922982 44.9389172,46.2075736 44.9389172,46.2075736 L44.9389172,46.2075736 Z M32.4965614,48.0877234 C32.4965614,48.0877234 47.4148569,47.1218394 51.2322099,65.5401116 L51.2322099,65.5401116 C35.0178192,63.7315233 32.4965614,48.0877234 32.4965614,48.0877234 L32.4965614,48.0877234 Z M20.181096,48.9351203 C20.181096,48.9351203 33.7201477,48.059177 37.1852023,64.7744433 L37.1852023,64.7744433 C22.4682764,63.1324407 20.181096,48.9351203 20.181096,48.9351203 L20.181096,48.9351203 Z M6.79060858,51.3818959 C6.79060858,51.3818959 18.1488787,48.4185484 23.0424359,62.0015353 L23.0424359,62.0015353 C22.5100478,62.0445504 21.9938165,62.0652758 21.492954,62.0652758 L21.492954,62.0652758 C10.0972472,62.0648848 6.79060858,51.3818959 6.79060858,51.3818959 L6.79060858,51.3818959 Z M103.462992,52.5128012 C103.454323,52.4877743 103.445259,52.4615742 103.437378,52.4369383 L103.437378,52.4369383 L103.516192,52.4584458 C103.498459,52.4764339 103.480725,52.4944221 103.462992,52.5128012 L103.462992,52.5128012 C111.918151,77.8021448 96.8587786,91.5665771 96.8587786,91.5665771 L96.8587786,91.5665771 C96.8587786,91.5665771 86.2772198,69.9870881 103.462992,52.5128012 L103.462992,52.5128012 Z M89.2414119,52.544867 C89.2622976,52.5476043 89.2835773,52.5507327 89.304463,52.5538611 L89.304463,52.5538611 L89.2552043,52.6195568 C89.2508696,52.5941388 89.2465348,52.570285 89.2414119,52.544867 L89.2414119,52.544867 Z M76.5405464,59.1879585 C76.5594617,59.1903048 76.5795593,59.19226 76.5980805,59.1946063 L76.5980805,59.1946063 L76.5547329,59.2544363 C76.550004,59.2313646 76.5456693,59.2106392 76.5405464,59.1879585 L76.5405464,59.1879585 Z M91.0139373,61.3809451 C91.0111788,61.3563092 91.0084203,61.3301091 91.0060559,61.3050822 L91.0060559,61.3050822 L91.0730477,61.3469241 C91.0533442,61.3586555 91.0340348,61.3696048 91.0139373,61.3809451 L91.0139373,61.3809451 C93.659721,86.8126295 77.1682994,95.1587268 77.1682994,95.1587268 L77.1682994,95.1587268 C77.1682994,95.1587268 71.8392952,72.5140281 91.0139373,61.3809451 L91.0139373,61.3809451 Z M23.0790844,61.9984069 L23.0570165,62.0422041 C23.0522876,62.0285175 23.0467707,62.0144398 23.0424359,62.0015353 L23.0424359,62.0015353 C23.0546521,62.0003622 23.0668682,61.9995801 23.0790844,61.9984069 L23.0790844,61.9984069 Z M64.4433956,64.3747942 C64.4599465,64.3763584 64.4757093,64.3783136 64.4926543,64.3798778 L64.4926543,64.3798778 L64.4556118,64.4342332 C64.451277,64.4142899 64.4473363,64.3943465 64.4433956,64.3747942 L64.4433956,64.3747942 Z M37.1852023,64.7744433 C37.1997829,64.7763986 37.2151516,64.7779628 37.2297322,64.7795269 L37.2297322,64.7795269 L37.1958422,64.8252793 C37.1922956,64.8080733 37.189143,64.7916494 37.1852023,64.7744433 L37.1852023,64.7744433 Z M17.155035,68.9296994 C17.155035,68.9296994 26.7072838,59.904746 38.7906422,69.9675358 L38.7906422,69.9675358 C35.1001797,73.0966869 31.6075402,74.1736279 28.5479833,74.1736279 L28.5479833,74.1736279 C21.7963876,74.1736279 17.155035,68.9296994 17.155035,68.9296994 L17.155035,68.9296994 Z M51.2322099,65.5401116 C51.2483667,65.5416758 51.2645236,65.5436311 51.2806804,65.5451952 L51.2806804,65.5451952 L51.244426,65.5979865 C51.2404853,65.5792163 51.2361506,65.5588819 51.2322099,65.5401116 L51.2322099,65.5401116 Z M76.3391768,68.4631814 C76.3395708,68.4408918 76.3395708,68.4170379 76.3399649,68.3947483 L76.3399649,68.3947483 L76.3951347,68.4412828 C76.3762193,68.4487127 76.3580921,68.4557515 76.3391768,68.4631814 L76.3391768,68.4631814 C76.1125867,91.2639075 60.7269245,96.304883 60.7269245,96.304883 L60.7269245,96.304883 C60.7269245,96.304883 58.3073367,75.5849133 76.3391768,68.4631814 L76.3391768,68.4631814 Z M38.8253203,69.9378163 L38.8253203,69.9964732 C38.8134982,69.9866971 38.8020702,69.977312 38.7906422,69.9675358 L38.7906422,69.9675358 C38.8016761,69.9573686 38.8134982,69.9475925 38.8253203,69.9378163 L38.8253203,69.9378163 Z M30.9750584,82.306214 C30.9750584,82.306214 36.0668326,69.1651092 50.68997,71.7248971 L50.68997,71.7248971 C46.5092848,81.1827385 39.9330502,82.9807686 35.5399615,82.9807686 L35.5399615,82.9807686 C32.8472834,82.9807686 30.9750584,82.306214 30.9750584,82.306214 L30.9750584,82.306214 Z M50.7104616,71.6783626 L50.7321354,71.7323269 C50.7179489,71.7299807 50.7041565,71.7272433 50.68997,71.7248971 L50.68997,71.7248971 C50.6970632,71.7092552 50.7037624,71.6940044 50.7104616,71.6783626 L50.7104616,71.6783626 Z M62.7051543,72.4819624 C62.7087009,72.4628011 62.7122475,72.4428577 62.7157942,72.4236965 L62.7157942,72.4236965 L62.7571715,72.4741414 C62.7398324,72.4768788 62.7224933,72.4796161 62.7051543,72.4819624 L62.7051543,72.4819624 C59.2066037,92.0854953 45.2167363,93.3192459 45.2167363,93.3192459 L45.2167363,93.3192459 C45.2167363,93.3192459 46.1337364,74.9725351 62.7051543,72.4819624 L62.7051543,72.4819624 Z" id="path-3"></path>
    </defs>
    <g id="Pods-GF" stroke="none" stroke-width="1" fill="none" fill-rule="evenodd">
        <g id="icon">
            <g id="back-hexagon" transform="translate(42.000000, 18.000000)">
                <g id="Polygon-1">
                    <use fill="#95BF3B" fill-rule="evenodd" xlink:href="#path-1"></use>
                    <path stroke="#26261B" stroke-width="20" d="M67.8065827,11.4082235 L5.38960768,47.4446808 C-3.44265993,52.5439929 -10,63.9018038 -10,74.1002632 L-10,146.173178 C-10,156.371802 -3.44251726,167.729531 5.38960768,172.82876 L67.8065827,208.865218 C76.6388503,213.96453 89.7536731,213.964447 98.5857981,208.865218 L161.002773,172.82876 C169.835041,167.729448 176.392381,156.371637 176.392381,146.173178 L176.392381,74.1002632 C176.392381,63.9016391 169.834898,52.5439105 161.002773,47.4446808 L98.5857981,11.4082235 C89.7535305,6.3089114 76.6387076,6.30899378 67.8065827,11.4082235 Z"></path>
                    <path stroke="#737362" stroke-width="10" d="M70.3065827,15.7383505 L7.88960768,51.7748078 C0.604355821,55.98095 -5,65.6881198 -5,74.1002632 L-5,146.173178 C-5,154.585462 0.60447776,164.292562 7.88960768,168.498633 L70.3065827,204.535091 C77.5918346,208.741233 88.8006681,208.741162 96.0857981,204.535091 L158.502773,168.498633 C165.788025,164.292491 171.392381,154.585321 171.392381,146.173178 L171.392381,74.1002632 C171.392381,65.687979 165.787903,55.9808796 158.502773,51.7748078 L96.0857981,15.7383505 C88.8005462,11.5322084 77.5917126,11.5322788 70.3065827,15.7383505 Z"></path>
                </g>
                <g id="small-hexagon" transform="translate(114.000000, 0.000000)">
                    <g id="Polygon-1-Copy">
                        <use fill="#95BF3B" fill-rule="evenodd" xlink:href="#path-2"></use>
                        <path stroke="#26261B" stroke-width="8" d="M16.3914723,-2.68439947 L1.22706147,6.12182779 C-1.44820831,7.67540175 -3.36401176,11.0016482 -3.36401176,14.0860956 L-3.36401176,31.746597 C-3.36401176,34.8293291 -1.4404486,38.161797 1.22706147,39.7108648 L16.3914723,48.5170921 C19.077482,50.0769029 22.9280328,50.0737003 25.6085277,48.5170921 L40.7729385,39.7108648 C43.4482083,38.1572908 45.3640118,34.8310444 45.3640118,31.746597 L45.3640118,14.0860956 C45.3640118,11.0033635 43.4404486,7.67089555 40.7729385,6.12182779 L25.6085277,-2.68439947 C22.922518,-4.2442103 19.0719672,-4.24100773 16.3914723,-2.68439947 L16.3914723,-2.68439947 Z"></path>
                        <path stroke="#737362" stroke-width="3" d="M17.6469268,-0.522494311 L2.48251599,8.28373295 C0.577491264,9.39001271 -0.864011756,11.8927717 -0.864011756,14.0860956 L-0.864011756,31.746597 C-0.864011756,33.9373076 0.584478262,36.4467373 2.48251599,37.5489596 L17.6469268,46.3551869 C19.555979,47.4638055 22.4481632,47.4614 24.3530732,46.3551869 L39.517484,37.5489596 C41.4225087,36.4426799 42.8640118,33.9399209 42.8640118,31.746597 L42.8640118,14.0860956 C42.8640118,11.895385 41.4155217,9.38595524 39.517484,8.28373295 L24.3530732,-0.522494311 C22.444021,-1.63111289 19.5518368,-1.62870741 17.6469268,-0.522494311 L17.6469268,-0.522494311 Z"></path>
                    </g>
                    <polygon id="+" fill="#FFFFFF" points="24.3353079 10.3265306 24.3353079 19.9949966 33.3166065 19.9949966 33.3166065 25.4151972 24.3353079 25.4151972 24.3353079 35.1324938 18.2183153 35.1324938 18.2183153 25.4151972 9.2855643 25.4151972 9.2855643 19.9949966 18.2183153 19.9949966 18.2183153 10.3265306"></polygon>
                </g>
                <g id="pods-circle-white" transform="translate(17.000000, 41.000000)">
                    <g id="pods-circle" transform="translate(1.039062, 1.039062)">
                        <g id="inner-logo" transform="translate(7.375641, 7.364711)">
                            <mask id="mask-4" fill="white">
                                <use xlink:href="#path-3"></use>
                            </mask>
                            <g id="Clip-2"></g>
                            <polygon id="Fill-1" fill="#FFFFFF" mask="url(#mask-4)" points="-3.76572978 -3.8639267 119.094948 -3.8639267 119.094948 119.102481 -3.76572978 119.102481"></polygon>
                        </g>
                        <path d="M65.4343591,4.09708732 C31.6109651,4.09708732 4.09465619,31.6137294 4.09465619,65.4361044 C4.09465619,99.2588736 31.6109651,126.775516 65.4343591,126.775516 C99.257753,126.775516 126.77485,99.2588736 126.77485,65.4361044 C126.77485,31.6137294 99.257753,4.09708732 65.4343591,4.09708732 M65.4343591,130.816702 C29.3832892,130.816702 0.0538657821,101.486768 0.0538657821,65.4361044 C0.0538657821,29.3850469 29.3832892,0.0555066213 65.4343591,0.0555066213 C101.485429,0.0555066213 130.81564,29.3850469 130.81564,65.4361044 C130.81564,101.486768 101.485429,130.816702 65.4343591,130.816702" id="Fill-4" fill="#FFFFFF"></path>
                    </g>
                </g>
            </g>
        </g>
    </g>
</svg>