<?xml version="1.0" encoding="UTF-8"?>
<svg width="772px" height="250px" viewBox="0 0 772 250" version="1.1" xmlns="http://www.w3.org/2000/svg" xmlns:xlink="http://www.w3.org/1999/xlink">
    <!-- Generator: Sketch 43.2 (39069) - http://www.bohemiancoding.com/sketch -->
    <title>banner</title>
    <desc>Created with Sketch.</desc>
    <defs>
        <polygon id="path-1" points="-5.71402373e-14 0.0457504924 135.494145 0.0457504924 135.494145 145.806447 -5.71402373e-14 145.806447"></polygon>
        <path d="M0.110579545,36.7263784 C0.110579545,56.9928348 16.5291515,73.4223483 36.7818949,73.4223483 L36.7818949,73.4223483 C51.6795,73.4223483 64.5022443,64.5331231 70.2421695,51.7660781 L70.2421695,51.7660781 C68.6434981,46.8773033 67.2600085,38.2762102 72.7780275,29.6788559 L72.7780275,29.6788559 C72.5419252,28.4645135 72.2460502,27.2718559 71.8936402,26.1038739 L71.8936402,26.1038739 C54.9729773,42.9204715 41.3116714,44.4954775 31.0260303,44.2213033 L31.0260303,44.2213033 C30.930892,44.2183123 30.5849574,44.1622312 30.4930568,43.9546066 L30.4930568,43.9546066 C30.4930568,43.9546066 30.3431269,43.2821321 30.7814602,43.2821321 L30.7814602,43.2821321 C50.4872831,43.2821321 61.7103598,31.6783333 70.8794962,23.1938889 L70.8794962,23.1938889 C70.3793977,21.9324384 69.8110587,20.7058829 69.1794602,19.5174625 L69.1794602,19.5174625 C59.2950436,16.7961592 55.4964867,8.69406306 54.1481136,4.3975045 L54.1481136,4.3975045 C48.979018,1.6108979 43.0650047,0.0296606607 36.7818949,0.0296606607 L36.7818949,0.0296606607 C16.5291515,0.0296606607 0.110579545,16.4591742 0.110579545,36.7263784 L0.110579545,36.7263784 Z M46.7646875,11.0881021 C46.7646875,11.0881021 60.7647055,9.56344444 64.8877784,26.8762973 L64.8877784,26.8762973 C49.5891979,25.8204775 46.7646875,11.0881021 46.7646875,11.0881021 L46.7646875,11.0881021 Z M41.1632358,18.3729099 C41.1632358,18.3729099 53.5752917,17.9581592 56.4007983,33.4916216 L56.4007983,33.4916216 C42.9641383,31.545982 41.1632358,18.3729099 41.1632358,18.3729099 L41.1632358,18.3729099 Z M34.3454091,24.5463153 C34.3454091,24.5463153 45.5154375,23.8167628 48.3738191,37.7258679 L48.3738191,37.7258679 C36.2319858,36.3594835 34.3454091,24.5463153 34.3454091,24.5463153 L34.3454091,24.5463153 Z M64.8877784,26.8762973 C64.9037178,26.8772943 64.9181629,26.8782913 64.9341023,26.8795375 L64.9341023,26.8795375 L64.9004801,26.9301351 C64.8962462,26.9121892 64.8920123,26.8942432 64.8877784,26.8762973 L64.8877784,26.8762973 Z M28.4015095,29.4522883 C28.4015095,29.4522883 38.2161913,28.809973 40.7283892,41.0319099 L40.7283892,41.0319099 C30.0594555,39.832024 28.4015095,29.4522883 28.4015095,29.4522883 L28.4015095,29.4522883 Z M20.5379091,30.6506787 C20.5379091,30.6506787 29.9663097,30.035033 32.3788864,41.7746727 L32.3788864,41.7746727 C22.1313504,40.6218949 20.5379091,30.6506787 20.5379091,30.6506787 L20.5379091,30.6506787 Z M12.7545038,31.1908018 C12.7545038,31.1908018 21.3112187,30.6324835 23.501142,41.2866426 L23.501142,41.2866426 C14.2000076,40.240045 12.7545038,31.1908018 12.7545038,31.1908018 L12.7545038,31.1908018 Z M4.29168182,32.7503544 C4.29168182,32.7503544 11.4701373,30.8615435 14.5628778,39.5192162 L14.5628778,39.5192162 C14.2264072,39.5466336 13.9001477,39.5598438 13.5836013,39.5598438 L13.5836013,39.5598438 C6.3814858,39.5595946 4.29168182,32.7503544 4.29168182,32.7503544 L4.29168182,32.7503544 Z M65.3888731,33.4711832 C65.3833939,33.4552312 65.3776657,33.4385315 65.3726847,33.4228288 L65.3726847,33.4228288 L65.4224953,33.4365375 C65.4112879,33.448003 65.4000805,33.4594685 65.3888731,33.4711832 L65.3888731,33.4711832 C70.7325549,49.5903814 61.2149934,58.3637057 61.2149934,58.3637057 L61.2149934,58.3637057 C61.2149934,58.3637057 54.5274214,44.6091351 65.3888731,33.4711832 L65.3888731,33.4711832 Z M56.4007983,33.4916216 C56.4139981,33.4933664 56.427447,33.4953604 56.4406468,33.4973544 L56.4406468,33.4973544 L56.4095152,33.5392282 C56.4067756,33.523027 56.404036,33.5078228 56.4007983,33.4916216 L56.4007983,33.4916216 Z M48.3738191,37.7258679 C48.3857737,37.7273634 48.3984754,37.7286096 48.4101809,37.7301051 L48.4101809,37.7301051 L48.382785,37.7682402 C48.3797964,37.7535345 48.3770568,37.7403243 48.3738191,37.7258679 L48.3738191,37.7258679 Z M57.5210388,39.1236577 C57.5192955,39.107955 57.5175521,39.0912553 57.5160578,39.0753033 L57.5160578,39.0753033 L57.5583968,39.101973 C57.5459441,39.1094505 57.5337405,39.1164294 57.5210388,39.1236577 L57.5210388,39.1236577 C59.1931809,55.3335826 48.7705606,60.6533093 48.7705606,60.6533093 L48.7705606,60.6533093 C48.7705606,60.6533093 45.4026165,46.2197838 57.5210388,39.1236577 L57.5210388,39.1236577 Z M14.5860398,39.5172222 L14.5720928,39.5451381 C14.5691042,39.5364144 14.5656174,39.5274414 14.5628778,39.5192162 L14.5628778,39.5192162 C14.5705985,39.5184685 14.5783191,39.51797 14.5860398,39.5172222 L14.5860398,39.5172222 Z M40.7283892,41.0319099 C40.7388494,41.0329069 40.7488116,41.0341532 40.7595208,41.0351502 L40.7595208,41.0351502 L40.7361098,41.0697958 C40.7333703,41.0570841 40.7308797,41.0443724 40.7283892,41.0319099 L40.7283892,41.0319099 Z M23.501142,41.2866426 C23.510357,41.2878889 23.5200701,41.2888859 23.529285,41.2898829 L23.529285,41.2898829 L23.5078665,41.319045 C23.505625,41.3080781 23.5036326,41.2976096 23.501142,41.2866426 L23.501142,41.2866426 Z M10.8420256,43.9351652 C10.8420256,43.9351652 16.879071,38.1827417 24.5157841,44.5966727 L24.5157841,44.5966727 C22.1834025,46.5911652 19.9760455,47.2775976 18.0423977,47.2775976 L18.0423977,47.2775976 C13.7753722,47.2775976 10.8420256,43.9351652 10.8420256,43.9351652 L10.8420256,43.9351652 Z M32.3788864,41.7746727 C32.3890975,41.7756697 32.3993087,41.7769159 32.4095199,41.7779129 L32.4095199,41.7779129 L32.386607,41.8115616 C32.3841165,41.7995976 32.3813769,41.7866366 32.3788864,41.7746727 L32.3788864,41.7746727 Z M48.246553,43.6378108 C48.2468021,43.6236036 48.2468021,43.6083994 48.2470511,43.5941922 L48.2470511,43.5941922 L48.2819186,43.6238529 C48.269964,43.6285886 48.2585076,43.6330751 48.246553,43.6378108 L48.246553,43.6378108 C48.1033475,58.1707868 38.3795701,61.3838589 38.3795701,61.3838589 L38.3795701,61.3838589 C38.3795701,61.3838589 36.8503845,48.1771381 48.246553,43.6378108 L48.246553,43.6378108 Z M24.5377008,44.5777297 L24.5377008,44.6151171 C24.5302292,44.6088859 24.5230066,44.6029039 24.5157841,44.5966727 L24.5157841,44.5966727 C24.5227576,44.5901922 24.5302292,44.583961 24.5377008,44.5777297 L24.5377008,44.5777297 Z M19.5763153,52.4612342 C19.5763153,52.4612342 22.7943295,44.0852132 32.0361894,45.7167988 L32.0361894,45.7167988 C29.3939858,51.7451411 25.2377888,52.8911892 22.4613456,52.8911892 L22.4613456,52.8911892 C20.7595663,52.8911892 19.5763153,52.4612342 19.5763153,52.4612342 L19.5763153,52.4612342 Z M32.0491402,45.6871381 L32.0628381,45.7215345 C32.0538722,45.720039 32.0451553,45.7182943 32.0361894,45.7167988 L32.0361894,45.7167988 C32.0406723,45.7068288 32.0449062,45.6971081 32.0491402,45.6871381 L32.0491402,45.6871381 Z M39.6298163,46.1993453 C39.6320578,46.1871321 39.6342992,46.1744204 39.6365407,46.1622072 L39.6365407,46.1622072 L39.6626913,46.1943604 C39.651733,46.1961051 39.6407746,46.1978498 39.6298163,46.1993453 L39.6298163,46.1993453 C37.4187235,58.6944595 28.5770919,59.4808408 28.5770919,59.4808408 L28.5770919,59.4808408 C28.5770919,59.4808408 29.1566383,47.7868138 39.6298163,46.1993453 L39.6298163,46.1993453 Z" id="path-3"></path>
    </defs>
    <g id="Pods-GF" stroke="none" stroke-width="1" fill="none" fill-rule="evenodd">
        <g id="banner">
            <polygon id="Fill-172" fill="#95BF3B" points="1185.977 925 -414 925 -414 -675 1185.977 -675"></polygon>
            <g id="Pods-Frond" opacity="0.1" style="mix-blend-mode: screen;" transform="translate(-14.000000, -378.000000)" fill="#BFBF9B">
                <path d="M1019.34984,315.705141 C1019.34984,315.705141 716.636167,354.192649 541.752346,461.607286 C464.375451,509.135067 377.552645,603.769679 201.02566,603.769679 C197.701779,603.769679 198.838496,607.706687 198.838496,607.706687 C199.535749,608.922767 202.161361,609.25119 202.882973,609.265425 C283.29551,610.918725 390.891809,601.088406 524.711749,494.071334 C641.905182,400.343698 1011.54709,345.170678 1011.54709,345.170678 L1019.34984,315.705141 Z" id="Fill-1"></path>
                <path d="M535.721051,507.386291 C447.26117,589.125982 513.591618,677.379224 513.591618,677.379224 C513.591618,677.379224 591.463797,612.295559 535.281588,507.327317" id="Fill-4"></path>
                <path d="M626.281319,459.526223 C517.754334,551.480578 600.9772,657.592708 600.9772,657.592708 C600.9772,657.592708 696.597379,584.6879 625.7292,459.431662" id="Fill-6"></path>
                <path d="M720.739713,421.176693 C608.681803,520.298397 693.415893,632.484825 693.415893,632.484825 C693.415893,632.484825 792.092012,553.796519 720.175415,421.080098" id="Fill-8"></path>
                <path d="M821.704997,386.581455 C702.429952,505.710521 795.379863,630.759334 795.379863,630.759334 C795.379863,630.759334 900.536281,535.742409 821.100101,386.497061" id="Fill-10"></path>
                <path d="M463.910107,546.143452 C381.124675,611.369467 431.982585,692.043562 431.982585,692.043562 C431.982585,692.043562 504.340675,640.58589 463.52951,546.063125" id="Fill-12"></path>
                <path d="M404.233713,579.303797 C311.926251,620.789817 337.538907,705.442608 337.538907,705.442608 C337.538907,705.442608 416.7924,674.237345 403.908937,579.146195" id="Fill-14"></path>
                <path d="M333.831182,605.770619 C247.053033,632.260013 258.687122,709.719021 258.687122,709.719021 C258.687122,709.719021 332.623421,690.872831 333.568316,605.598781" id="Fill-16"></path>
                <path d="M268.424012,620.814931 C188.704669,629.993488 184.293803,698.582026 184.293803,698.582026 C184.293803,698.582026 251.529564,693.965803 268.222042,620.626825" id="Fill-19"></path>
                <path d="M153.644275,611.352487 C96.8114985,648.985892 49.7118567,607.5924 49.7118567,607.5924 C49.7118567,607.5924 95.6088119,573.856348 153.644275,611.57313" id="Fill-21"></path>
                <path d="M210.648573,617.84794 C178.333349,674.964044 115.990543,657.494588 115.990543,657.494588 C115.990543,657.494588 140.459379,608.375531 210.751081,618.048248" id="Fill-23"></path>
                <path d="M655.041158,399.696511 C637.903128,248.114582 485.63083,231.713771 485.63083,231.713771 C485.63083,231.713771 493.135188,359.185593 655.479606,399.352837" id="Fill-32"></path>
                <path d="M571.9412,436.93591 C556.668603,301.849354 420.969021,287.235041 420.969021,287.235041 C420.969021,287.235041 427.659409,400.829723 572.327887,436.629857" id="Fill-34"></path>
                <path d="M517.063881,468.873363 C489.859821,356.329025 373.221552,360.107414 373.221552,360.107414 C373.221552,360.107414 390.886328,455.474114 517.364299,468.566293" id="Fill-36"></path>
                <path d="M459.949463,508.06449 C428.785164,406.400813 322.320507,415.344492 322.320507,415.344492 C322.320507,415.344492 343.786179,501.750228 460.203194,507.768604" id="Fill-38"></path>
                <path d="M395.510633,546.747628 C374.19923,455.539596 279.80914,457.97989 279.80914,457.97989 C279.80914,457.97989 293.502513,535.230456 395.74711,546.502582" id="Fill-40"></path>
                <path d="M334.598263,571.497092 C313.01283,489.82756 228.073725,494.11231 228.073725,494.11231 C228.073725,494.11231 242.42071,563.387181 334.808352,571.274415" id="Fill-42"></path>
                <path d="M276.567164,590.822088 C257.601254,519.061167 182.964657,522.825321 182.964657,522.825321 C182.964657,522.825321 195.571045,583.695412 276.746806,590.619747" id="Fill-44"></path>
                <path d="M213.205678,595.162761 C194.988782,526.230549 123.290394,529.841167 123.290394,529.841167 C123.290394,529.841167 135.408603,588.315702 213.380245,594.968554" id="Fill-46"></path>
                <path d="M145.827116,592.281282 C129.293982,529.721288 64.2220418,533.000433 64.2220418,533.000433 C64.2220418,533.000433 75.2187582,586.069716 145.987475,592.109445" id="Fill-48"></path>
                <path d="M78.0154866,581.896915 C54.5818746,531.055417 0.000202985075,542.130286 0.000202985075,542.130286 C0.000202985075,542.130286 17.3138149,585.646834 78.1200239,581.735245" id="Fill-50"></path>
            </g>
            <polygon id="+" fill="#FFFFFF" points="436.354873 110 436.354873 121.540138 447.308587 121.540138 447.308587 128.009609 436.354873 128.009609 436.354873 139.608031 428.894505 139.608031 428.894505 128.009609 418 128.009609 418 121.540138 428.894505 121.540138 428.894505 110"></polygon>
            <g id="Gravity" transform="translate(472.000000, 52.000000)">
                <g id="Group-3" transform="translate(-0.000000, 0.000000)">
                    <mask id="mask-2" fill="white">
                        <use xlink:href="#path-1"></use>
                    </mask>
                    <g id="Clip-2"></g>
                    <path d="M128.099168,97.7334294 C128.099168,102.747014 124.22097,109.341408 119.801892,111.84727 L76.0448029,136.657428 C73.9286301,137.854752 70.9045522,138.542869 67.7463907,138.542869 C64.5893654,138.542869 61.5641512,137.854752 59.4506298,136.657428 L15.6939191,111.84727 C11.2733262,109.341408 7.39664311,102.747014 7.39664311,97.7334294 L7.39664311,48.1146027 C7.39664311,43.102506 11.2733262,36.5099716 15.6939191,34.0044813 L59.4506298,9.19543983 C61.5641512,7.99402446 64.5893654,7.30851098 67.7463907,7.30851098 C70.9045522,7.30851098 73.9286301,7.99402446 76.0448029,9.19543983 L119.801892,34.0044813 C124.22097,36.5099716 128.099168,43.102506 128.099168,48.1146027 L128.099168,97.7334294 Z M123.49904,27.7147184 L79.7427078,2.90530505 C76.4898545,1.0607791 72.2309952,0.0457132969 67.7463907,0.0457132969 C63.2633012,0.0457132969 59.0055782,1.0607791 55.7531037,2.90530505 L11.9948778,27.7147184 C5.26872856,31.5276314 7.57534551e-05,40.4865449 7.57534551e-05,48.1146027 L7.57534551e-05,97.7334294 C7.57534551e-05,105.363347 5.26872856,114.323376 11.9948778,118.136289 L55.7531037,142.94719 C59.0055782,144.791716 63.2633012,145.80641 67.7463907,145.80641 C72.2309952,145.80641 76.4898545,144.791716 79.7427078,142.94719 L123.49904,118.136289 C130.227083,114.323376 135.493842,105.363347 135.493842,97.7334294 L135.493842,48.1146027 C135.493842,40.4880328 130.227083,31.5276314 123.49904,27.7147184 L123.49904,27.7147184 Z" id="Fill-1" fill="#FFFFFF" mask="url(#mask-2)"></path>
                </g>
                <path d="M27.5797498,89.079668 L103.987715,89.079668 L103.987715,69.0989773 L90.6748026,69.0989773 L90.6748026,76.0073017 L40.3839775,76.0073017 C40.6767646,71.7294446 41.7407219,64.0775818 45.5325611,60.1151428 C47.2479981,58.3226906 49.4171983,57.4865352 52.3564324,57.4865352 L104.35777,57.4880231 L104.35777,44.4145409 L52.4700625,44.4145409 C45.7151269,44.4145409 40.1169466,46.6834677 35.8308161,51.1629245 C25.523801,61.9358636 27.0229619,82.2044476 27.0918975,83.0618044 L27.5797498,89.079668 Z" id="Fill-4" fill="#FFFFFF"></path>
                <path d="M27.792617,97.6142922 C27.8725369,97.0768169 28.2149425,96.7859479 28.7622612,96.7859479 L37.5731456,96.7859479 C37.8913101,96.7859479 38.0863752,96.6308426 38.1314486,96.3165404 L38.2799253,95.4208722 C38.3249986,95.1065701 38.1890212,94.9510928 37.8689628,94.9510928 L28.4645501,94.9510928 C26.7093426,94.9510928 25.9574895,95.813285 25.7173511,97.2903192 L25.2166208,100.446731 C25.1813954,100.637172 25.1704111,100.816083 25.1704111,100.984578 C25.1704111,102.126481 25.8775697,102.78633 27.211588,102.78633 L35.066085,102.78633 C36.8209138,102.78633 37.6307182,102.261501 37.8689628,100.783351 L38.2337157,98.4764844 C38.2912883,98.164042 38.1553109,98.0070769 37.8352525,98.0070769 L33.3218617,98.0070769 C33.0018033,98.0070769 32.8196163,98.164042 32.7620437,98.4764844 L32.6370505,99.2609379 C32.5923559,99.5748681 32.7283334,99.7303454 33.0483917,99.7303454 L35.9202052,99.7303454 L35.806575,100.392054 C35.7490024,100.783351 35.4884105,100.951474 35.054722,100.951474 L28.0884342,100.951474 C27.6100512,100.951474 27.3702915,100.726442 27.3702915,100.313571 C27.3702915,100.257034 27.3702915,100.189338 27.3812757,100.121642 L27.792617,97.6142922 Z" id="Fill-6" fill="#FFFFFF"></path>
                <path d="M49.6924864,97.3469308 L49.6125665,97.8498142 C49.5549938,98.2425989 49.2940232,98.4088629 48.8607134,98.4088629 L41.5073255,98.4088629 L41.7698112,96.7860223 L49.1228204,96.7860223 C49.4989363,96.7860223 49.7053644,96.921042 49.7053644,97.211911 C49.7053644,97.2558017 49.7053644,97.3015522 49.6924864,97.3469308 M49.772785,94.9511672 L40.4255662,94.9511672 C40.1055078,94.9511672 39.9233208,95.1066444 39.8786262,95.4205746 L38.7616415,102.316624 C38.7154319,102.629067 38.8514094,102.786404 39.1714677,102.786404 L40.334662,102.786404 C40.6528266,102.786404 40.8353924,102.629067 40.881602,102.316624 L41.2111295,100.24595 L48.2334748,100.24595 C48.7932928,100.24595 49.1004731,100.470611 49.1004731,100.93853 C49.1004731,100.99544 49.1004731,101.062763 49.0894889,101.130459 L48.8940449,102.316624 C48.8493504,102.629067 48.9853279,102.786404 49.3053862,102.786404 L50.4666867,102.786404 C50.786745,102.786404 50.9693108,102.629067 51.0140054,102.316624 L51.1965712,101.163563 C51.2204335,100.99544 51.2427808,100.828432 51.2427808,100.682625 C51.2427808,99.9881848 50.9246163,99.5622961 50.3534352,99.3502816 C51.1965712,99.1036753 51.629881,98.533096 51.7900995,97.4916213 L51.8810037,96.954146 C51.9037297,96.7860223 51.9166078,96.630545 51.9166078,96.4847385 C51.9166078,95.3644094 51.1181664,94.9511672 49.772785,94.9511672" id="Fill-8" fill="#FFFFFF"></path>
                <path d="M63.3751133,97.6142922 L63.1925475,98.745408 L54.8346688,98.745408 L55.0172346,97.6142922 C55.0986696,97.0768169 55.4395601,96.7859479 55.9868788,96.7859479 L62.6554555,96.7859479 C63.1353536,96.7859479 63.3845825,97.0106088 63.3845825,97.4350097 C63.3845825,97.4915469 63.3845825,97.5480841 63.3751133,97.6142922 M63.544801,94.9510928 L55.6906828,94.9510928 C53.9354753,94.9510928 53.1836222,95.813285 52.9434838,97.2903192 L52.1340581,102.316922 C52.0893636,102.628992 52.225341,102.78633 52.5453994,102.78633 L53.7085937,102.78633 C54.0267582,102.78633 54.209324,102.628992 54.2555336,102.316922 L54.5388515,100.580635 L62.8952152,100.580635 L62.6103822,102.316922 C62.5637938,102.628992 62.7016651,102.78633 63.0202084,102.78633 L64.1830239,102.78633 C64.5015672,102.78633 64.684133,102.628992 64.7303426,102.316922 L65.5397683,97.2903192 C65.5734786,97.10025 65.5863566,96.9213396 65.5863566,96.7532158 C65.5863566,95.6109413 64.8791981,94.9510928 63.544801,94.9510928" id="Fill-10" fill="#FFFFFF"></path>
                <path d="M79.2563328,94.9510184 L77.7170226,94.9510184 C77.3522697,94.9510184 77.1697038,95.0626049 76.9651695,95.2854061 L71.8582503,100.9514 L68.5974429,95.2854061 C68.4614654,95.0626049 68.2792783,94.9510184 67.9141467,94.9510184 L66.5687653,94.9510184 C66.2949166,94.9510184 66.1464398,95.2526741 66.2839323,95.477335 L70.2723518,102.305317 C70.4677957,102.62929 70.7973232,102.786255 71.2196487,102.786255 L72.1430833,102.786255 C72.5654088,102.786255 72.9172836,102.62929 73.2036317,102.305317 L79.4051883,95.477335 C79.6101014,95.2526741 79.5298027,94.9510184 79.2563328,94.9510184" id="Fill-12" fill="#FFFFFF"></path>
                <path d="M81.9712987,94.9510184 L80.8081044,94.9510184 C80.4895611,94.9510184 80.3073741,95.1064957 80.2607857,95.4207978 L79.1441798,102.316848 C79.0994852,102.62929 79.2350839,102.786255 79.5536272,102.786255 L80.7172003,102.786255 C81.0368798,102.786255 81.2194457,102.62929 81.2641402,102.316848 L82.38264,95.4207978 C82.4273345,95.1064957 82.289842,94.9510184 81.9712987,94.9510184" id="Fill-14" fill="#FFFFFF"></path>
                <path d="M95.4893134,94.9510184 L83.849795,94.9510184 C83.5297367,94.9510184 83.3471708,95.1064957 83.3024763,95.4207978 L83.1536208,96.316466 C83.1085475,96.6307682 83.2335407,96.7862454 83.553599,96.7862454 L88.3071283,96.7862454 L87.417404,102.316848 C87.3727095,102.62929 87.5086869,102.786255 87.8283665,102.786255 L88.9904245,102.786255 C89.3101041,102.786255 89.4926699,102.62929 89.5373644,102.316848 L90.4270888,96.7862454 L95.1916023,96.7862454 C95.5116607,96.7862454 95.7052107,96.6307682 95.7499053,96.316466 L95.8987608,95.4207978 C95.9449704,95.1064957 95.8074779,94.9510184 95.4893134,94.9510184" id="Fill-16" fill="#FFFFFF"></path>
                <path d="M109.136753,94.9510184 L107.973559,94.9510184 C107.6535,94.9510184 107.471313,95.1064957 107.42624,95.4207978 L107.014899,97.9173613 C106.936494,98.4548366 106.594088,98.7453336 106.047148,98.7453336 L98.8649631,98.7453336 C98.38658,98.7453336 98.1354573,98.5225324 98.1354573,98.1074304 C98.1354573,98.0401065 98.1354573,97.9846852 98.1464416,97.9173613 L98.5577829,95.4207978 C98.6028562,95.1064957 98.4649849,94.9510184 98.1464416,94.9510184 L96.9836261,94.9510184 C96.6650828,94.9510184 96.4828957,95.1064957 96.4363073,95.4207978 L95.9806503,98.2428221 C95.94694,98.4310314 95.9351982,98.6103139 95.9351982,98.7799254 C95.9351982,99.9203402 96.6412204,100.580561 97.9752388,100.580561 L101.100069,100.580561 L100.813721,102.316848 C100.769026,102.62929 100.905004,102.786255 101.224683,102.786255 L102.388256,102.786255 C102.706421,102.786255 102.888987,102.62929 102.935196,102.316848 L103.220029,100.580561 L106.342965,100.580561 C108.100067,100.580561 108.85192,99.7194843 109.090164,98.2428221 L109.5462,95.4207978 C109.590895,95.1064957 109.454917,94.9510184 109.136753,94.9510184" id="Fill-18" fill="#FFFFFF"></path>
            </g>
            <g id="Group" transform="translate(122.000000, 84.000000)">
                <g id="pods-logo-white">
                    <g id="pods-circle" stroke-width="1">
                        <g id="Group-3" transform="translate(4.732008, 4.735736)">
                            <mask id="mask-4" fill="white">
                                <use xlink:href="#path-3"></use>
                            </mask>
                            <g id="Clip-2"></g>
                            <polygon id="Fill-1" fill="#FFFFFF" mask="url(#mask-4)" points="-2.37995076 -2.46283183 75.2683087 -2.46283183 75.2683087 75.9148408 -2.37995076 75.9148408"></polygon>
                        </g>
                        <path d="M41.4252645,2.66871171 C20.0487938,2.66871171 2.65841695,20.0712943 2.65841695,41.4618649 C2.65841695,62.8526847 20.0487938,80.2552673 41.4252645,80.2552673 C62.8017351,80.2552673 80.1926101,62.8526847 80.1926101,41.4618649 C80.1926101,20.0712943 62.8017351,2.66871171 41.4252645,2.66871171 M41.4252645,82.8110691 C18.6408971,82.8110691 0.104627178,64.2616907 0.104627178,41.4618649 C0.104627178,18.6617898 18.6408971,0.112660661 41.4252645,0.112660661 C64.2096319,0.112660661 82.7463999,18.6617898 82.7463999,41.4618649 C82.7463999,64.2616907 64.2096319,82.8110691 41.4252645,82.8110691" id="Fill-4" fill="#FFFFFF"></path>
                    </g>
                    <path d="M106.294951,53.3375461 L103.695598,74.6256785 L89.6590909,74.6256785 L97.3705054,11.4549881 L118.251976,11.4549881 C122.006616,11.4549881 125.219673,11.9102288 127.891244,12.8207237 C130.562815,13.7312187 132.757802,14.98855 134.476272,16.5927553 C136.194742,18.1969607 137.458304,20.0901837 138.266996,22.2724811 C139.075687,24.4547785 139.480027,26.8032421 139.480027,29.3179424 C139.480027,32.75759 138.952941,35.9442745 137.898754,38.8780915 C136.844566,41.8119086 135.234428,44.3482493 133.068289,46.4871898 C130.902151,48.6261303 128.158416,50.302572 124.837004,51.5165653 C121.515592,52.7305585 117.587719,53.3375461 113.05327,53.3375461 L106.294951,53.3375461 Z M110.193981,21.9906626 L107.63795,42.7151582 L114.439591,42.7151582 C116.461321,42.7151582 118.158104,42.4188905 119.529991,41.8263461 C120.901879,41.2338018 122.013813,40.3955809 122.865828,39.3116584 C123.717842,38.2277358 124.331572,36.9342743 124.707036,35.4312351 C125.0825,33.9281958 125.27023,32.2806582 125.27023,30.4885729 C125.27023,29.2456751 125.104161,28.1039605 124.77202,27.0633948 C124.439879,26.0228292 123.927234,25.1268 123.23407,24.3752803 C122.540905,23.6237607 121.667243,23.0384513 120.613055,22.6193346 C119.558868,22.2002179 118.309747,21.9906626 116.865654,21.9906626 L110.193981,21.9906626 Z M156.135244,65.3473479 C157.6371,65.3473479 158.980086,64.8921072 160.164242,63.9816123 C161.348397,63.0711173 162.352027,61.8282381 163.175159,60.2529374 C163.998292,58.6776366 164.633683,56.8422219 165.081352,54.7466383 C165.52902,52.6510547 165.752851,50.4182078 165.752851,48.0480305 C165.752851,44.7818105 165.31241,42.447799 164.431513,41.0459258 C163.550617,39.6440526 162.113767,38.9431266 160.120919,38.9431266 C158.619063,38.9431266 157.276077,39.3983672 156.091922,40.3088622 C154.907766,41.2193571 153.904137,42.4550103 153.081004,44.0158587 C152.257872,45.5767072 151.622481,47.4121219 151.174812,49.5221578 C150.727143,51.6321937 150.503312,53.8722667 150.503312,56.242444 C150.503312,59.4508547 150.943754,61.7704142 151.82465,63.201192 C152.705547,64.6319697 154.142397,65.3473479 156.135244,65.3473479 L156.135244,65.3473479 Z M154.922213,75.3193855 C152.409492,75.3193855 150.062877,74.900275 147.882298,74.0620416 C145.701719,73.2238082 143.809986,72.0026071 142.207043,70.3984017 C140.604101,68.7941963 139.347759,66.8142608 138.437981,64.4585358 C137.528203,62.1028108 137.073321,59.3930451 137.073321,56.3291573 C137.073321,52.3403224 137.730373,48.6767191 139.044497,45.3382376 C140.358621,41.9997562 142.127608,39.1165654 144.35151,36.6885789 C146.575412,34.2605924 149.153078,32.3673694 152.084586,31.0088532 C155.016093,29.6503369 158.099184,28.971089 161.333951,28.971089 C163.846671,28.971089 166.186066,29.3901994 168.352204,30.2284328 C170.518343,31.0666663 172.402855,32.2878674 174.005797,33.8920727 C175.60874,35.4962781 176.872302,37.4762136 177.796521,39.8319386 C178.72074,42.1876636 179.182843,44.8974294 179.182843,47.9613171 C179.182843,51.8923429 178.52579,55.527042 177.211666,58.8655234 C175.897542,62.2040049 174.128556,65.0944217 171.904654,67.5368605 C169.680751,69.9792993 167.103085,71.8869744 164.171578,73.2599429 C161.24007,74.6329115 158.15698,75.3193855 154.922213,75.3193855 L154.922213,75.3193855 Z M213.667595,74.6256785 C212.830021,74.6256785 212.129647,74.5172879 211.566451,74.3005034 C211.003255,74.0837189 210.555593,73.7874511 210.223452,73.4116913 C209.891311,73.0359315 209.660259,72.5879169 209.530291,72.0676341 C209.400323,71.5473513 209.33534,70.98372 209.33534,70.3767234 L209.33534,66.6046917 C207.284728,69.3217243 205.017537,71.4534066 202.533699,72.9998028 C200.04986,74.546199 197.407211,75.3193855 194.605671,75.3193855 C192.757233,75.3193855 191.067671,74.9942136 189.536933,74.3438601 C188.006195,73.6935065 186.68487,72.6746346 185.572919,71.2872138 C184.460968,69.8997929 183.594526,68.1294126 182.973566,65.9760198 C182.352606,63.822627 182.042131,61.24293 182.042131,58.2368515 C182.042131,55.6354374 182.316504,53.0990967 182.86526,50.6277532 C183.414015,48.1564098 184.179372,45.8368504 185.161355,43.6690053 C186.143338,41.5011602 187.313035,39.5139986 188.670482,37.707461 C190.027928,35.9009235 191.522542,34.3545505 193.154366,33.0682957 C194.78619,31.782041 196.511855,30.7776211 198.331411,30.0550061 C200.150967,29.3323911 202.028259,28.971089 203.963343,28.971089 C205.811781,28.971089 207.479683,29.2818088 208.967098,29.9032577 C210.454513,30.5247066 211.761397,31.3412494 212.887789,32.3529104 L215.747077,9.72072072 L228.917134,9.72072072 L220.859139,74.6256785 L213.667595,74.6256785 Z M199.977668,65.0872078 C200.901887,65.0872078 201.862194,64.7403577 202.858618,64.0466473 C203.855042,63.3529369 204.822569,62.3990993 205.761229,61.1851061 C206.699889,59.9711128 207.573552,58.5475826 208.382243,56.9144726 C209.190935,55.2813626 209.884089,53.5254344 210.461726,51.6466353 L211.848048,40.7207507 C211.010474,40.0559448 210.079048,39.5790261 209.053743,39.28998 C208.028437,39.000934 207.05369,38.8564132 206.129471,38.8564132 C204.569851,38.8564132 203.133001,39.3766882 201.818877,40.4172539 C200.504753,41.4578195 199.371157,42.8235414 198.418056,44.5144606 C197.464955,46.2053798 196.721259,48.134733 196.186945,50.3025781 C195.65263,52.4704232 195.385477,54.681592 195.385477,56.9361509 C195.385477,59.7977065 195.804258,61.8715805 196.641831,63.1578353 C197.479405,64.44409 198.591339,65.0872078 199.977668,65.0872078 L199.977668,65.0872078 Z M259.534196,39.1165533 C259.12985,39.6368361 258.754392,40.0125903 258.407809,40.2438271 C258.061227,40.4750639 257.599125,40.5906806 257.021488,40.5906806 C256.443851,40.5906806 255.873443,40.4606119 255.310247,40.2004704 C254.747051,39.940329 254.140541,39.6440613 253.4907,39.3116584 C252.840858,38.9792555 252.104382,38.6829878 251.281249,38.4228463 C250.458117,38.1627049 249.51225,38.0326362 248.443622,38.0326362 C246.450775,38.0326362 245.028365,38.4156164 244.176351,39.1815883 C243.324336,39.9475603 242.898335,40.937528 242.898335,42.1515213 C242.898335,42.9319455 243.136607,43.5967414 243.613157,44.1459288 C244.089708,44.6951162 244.717879,45.1864871 245.497689,45.6200561 C246.277498,46.0536251 247.165602,46.4510574 248.162026,46.8123649 C249.158449,47.1736725 250.176519,47.5783308 251.216266,48.0263521 C252.256012,48.4743734 253.274082,48.9874224 254.270506,49.5655144 C255.266929,50.1436065 256.155033,50.8517586 256.934843,51.689992 C257.714652,52.5282255 258.342823,53.5254193 258.819374,54.6816033 C259.295924,55.8377874 259.534196,57.2107353 259.534196,58.8004884 C259.534196,61.0550473 259.086534,63.1867297 258.191197,65.1955995 C257.295859,67.2044693 256.010636,68.9531714 254.335489,70.4417584 C252.660342,71.9303454 250.631423,73.1154162 248.248671,73.9970066 C245.865918,74.8785969 243.187167,75.3193855 240.212337,75.3193855 C238.797127,75.3193855 237.396378,75.1748646 236.010049,74.8858186 C234.623721,74.5967726 233.316837,74.2065663 232.089358,73.7151881 C230.86188,73.2238099 229.742725,72.6385005 228.73186,71.9592424 C227.720996,71.2799842 226.897876,70.550154 226.262475,69.7697298 L229.554989,64.8270677 C229.959335,64.2489756 230.428658,63.793735 230.962972,63.4613321 C231.497286,63.1289292 232.154338,62.9627302 232.934148,62.9627302 C233.656194,62.9627302 234.277145,63.1361552 234.797018,63.4830104 C235.316891,63.8298656 235.880079,64.2056198 236.486597,64.6102842 C237.093116,65.0149486 237.815152,65.3907028 238.652725,65.737558 C239.490299,66.0844133 240.587792,66.2578383 241.945239,66.2578383 C243.851441,66.2578383 245.26663,65.8315018 246.190849,64.978816 C247.115068,64.1261303 247.577171,63.1217105 247.577171,61.9655264 C247.577171,61.0694838 247.338899,60.3324275 246.862349,59.7543355 C246.385798,59.1762435 245.757628,58.6776466 244.977818,58.2585298 C244.198008,57.8394131 243.317125,57.4636589 242.335142,57.131256 C241.353159,56.7988531 240.34231,56.430325 239.302563,56.0256605 C238.262817,55.6209961 237.251968,55.1513034 236.269985,54.6165683 C235.288002,54.0818332 234.407119,53.4098113 233.627309,52.6004824 C232.847499,51.7911536 232.219328,50.7939598 231.742778,49.6088711 C231.266227,48.4237825 231.027956,46.9930262 231.027956,45.3165593 C231.027956,43.235428 231.410635,41.2121363 232.176003,39.2466234 C232.941372,37.2811105 234.082188,35.5396344 235.598485,34.0221428 C237.114782,32.5046512 238.999294,31.2834501 241.252078,30.3585029 C243.504862,29.4335556 246.133071,28.971089 249.136783,28.971089 C252.140495,28.971089 254.819246,29.491364 257.173117,30.5319296 C259.526987,31.5724953 261.469262,32.8442787 263,34.3473179 L259.534196,39.1165533 Z" id="Pods" fill="#FFFFFF"></path>
                </g>
            </g>
        </g>
    </g>
</svg>