<?xml version="1.0" encoding="UTF-8" standalone="no"?>
<svg width="475px" height="458px" viewBox="0 0 475 458" version="1.1" xmlns="http://www.w3.org/2000/svg" xmlns:xlink="http://www.w3.org/1999/xlink" xmlns:sketch="http://www.bohemiancoding.com/sketch/ns">
    <!-- Generator: Sketch 3.5.2 (25235) - http://www.bohemiancoding.com/sketch -->
    <title>icon</title>
    <desc>Created with Sketch.</desc>
    <defs>
        <path id="path-1" d="M0,0.123 L357.724,0.123 L357.724,392 L0,392 L0,0.123 Z"></path>
        <path id="path-3" d="M0,0.113272959 L329.745587,0.113272959 L329.745587,361 L0,361 L0,0.113272959 Z"></path>
        <path id="path-5" d="M0,0.0376530612 L109.915196,0.0376530612 L109.915196,120 L0,120 L0,0.0376530612 Z"></path>
        <path id="path-7" d="M0.0643752622,0.658494897 L101.382852,0.658494897 L101.382852,111.134024 L0.0643752622,111.134024 L0.0643752622,0.658494897 Z"></path>
    </defs>
    <g id="Page-1" stroke="none" stroke-width="1" fill="none" fill-rule="evenodd" sketch:type="MSPage">
        <g id="icon" sketch:type="MSArtboardGroup">
            <g id="outer-border" sketch:type="MSLayerGroup" transform="translate(59.000000, 33.000000)">
                <mask id="mask-2" sketch:name="Clip 2" fill="white">
                    <use xlink:href="#path-1"></use>
                </mask>
                <g id="Clip-2"></g>
                <path d="M338.2002,262.7559 C338.2002,276.2349 327.9612,293.9639 316.2942,300.7009 L200.7692,367.4029 C195.1822,370.6219 187.1982,372.4719 178.8602,372.4719 C170.5252,372.4719 162.5382,370.6219 156.9582,367.4029 L41.4342,300.7009 C29.7632,293.9639 19.5282,276.2349 19.5282,262.7559 L19.5282,129.3559 C19.5282,115.8809 29.7632,98.1569 41.4342,91.4209 L156.9582,24.7219 C162.5382,21.4919 170.5252,19.6489 178.8602,19.6489 C187.1982,19.6489 195.1822,21.4919 200.7692,24.7219 L316.2942,91.4209 C327.9612,98.1569 338.2002,115.8809 338.2002,129.3559 L338.2002,262.7559 Z M326.0552,74.5109 L210.5322,7.8109 C201.9442,2.8519 190.7002,0.1229 178.8602,0.1229 C167.0242,0.1229 155.7832,2.8519 147.1962,7.8109 L31.6682,74.5109 C13.9102,84.7619 0.0002,108.8479 0.0002,129.3559 L0.0002,262.7559 C0.0002,283.2689 13.9102,307.3579 31.6682,317.6089 L147.1962,384.3129 C155.7832,389.2719 167.0242,391.9999 178.8602,391.9999 C190.7002,391.9999 201.9442,389.2719 210.5322,384.3129 L326.0552,317.6089 C343.8182,307.3579 357.7232,283.2689 357.7232,262.7559 L357.7232,129.3559 C357.7232,108.8519 343.8182,84.7619 326.0552,74.5109 L326.0552,74.5109 Z" id="Fill-1" fill="#221F20" sketch:type="MSShapeGroup" mask="url(#mask-2)"></path>
            </g>
            <g id="inner-border" sketch:type="MSLayerGroup" transform="translate(73.000000, 49.000000)">
                <mask id="mask-4" sketch:name="Clip 2" fill="white">
                    <use xlink:href="#path-3"></use>
                </mask>
                <g id="Clip-2"></g>
                <path d="M311.748788,241.976734 C311.748788,254.389793 302.310603,270.716755 291.556106,276.920982 L185.066581,338.348079 C179.916553,341.312515 172.557,343.016214 164.871134,343.016214 C157.188034,343.016214 149.825715,341.312515 144.68214,338.348079 L38.1935363,276.920982 C27.435352,270.716755 18.0008547,254.389793 18.0008547,241.976734 L18.0008547,119.126224 C18.0008547,106.716849 27.435352,90.3944921 38.1935363,84.191186 L144.68214,22.7668518 C149.825715,19.7922855 157.188034,18.0950329 164.871134,18.0950329 C172.557,18.0950329 179.916553,19.7922855 185.066581,22.7668518 L291.556106,84.191186 C302.310603,90.3944921 311.748788,106.716849 311.748788,119.126224 L311.748788,241.976734 Z M300.553676,68.6184564 L194.065994,7.19320128 C186.149682,2.62636709 175.785101,0.113180867 164.871134,0.113180867 C153.960855,0.113180867 143.599039,2.62636709 135.683648,7.19320128 L29.1913575,68.6184564 C12.8222514,78.0587906 0.000184357542,100.24003 0.000184357542,119.126224 L0.000184357542,241.976734 C0.000184357542,260.867533 12.8222514,283.051535 29.1913575,292.49187 L135.683648,353.920808 C143.599039,358.487643 153.960855,360.999908 164.871134,360.999908 C175.785101,360.999908 186.149682,358.487643 194.065994,353.920808 L300.553676,292.49187 C316.927391,283.051535 329.744849,260.867533 329.744849,241.976734 L329.744849,119.126224 C329.744849,100.243714 316.927391,78.0587906 300.553676,68.6184564 L300.553676,68.6184564 Z" id="Fill-1" fill="#737362" sketch:type="MSShapeGroup" mask="url(#mask-4)"></path>
                <path d="M286.563656,80.1603394 L191.055869,25.0686132 C183.955803,20.9726631 174.659909,18.7186103 164.871277,18.7186103 C155.085951,18.7186103 145.792537,20.9726631 138.693298,25.0686132 L43.1813774,80.1603394 C28.500082,88.6272852 17.0000922,108.521428 17.0000922,125.460275 L17.0000922,235.643728 C17.0000922,252.586705 28.500082,272.483326 43.1813774,280.950271 L138.693298,336.045302 C145.792537,340.141252 155.085951,342.394478 164.871277,342.394478 C174.659909,342.394478 183.955803,340.141252 191.055869,336.045302 L286.563656,280.950271 C301.249085,272.483326 312.744941,252.586705 312.744941,235.643728 L312.744941,125.460275 C312.744941,108.524732 301.249085,88.6272852 286.563656,80.1603394 Z" id="Fill-1-Copy-2" fill="#F2F2DC" sketch:type="MSShapeGroup" mask="url(#mask-4)"></path>
            </g>
            <g id="Logo-Mark" sketch:type="MSLayerGroup" transform="translate(128.000000, 119.000000)">
                <path d="M221.951495,111.024253 C221.951495,49.7338876 172.266166,0.0485591241 110.975801,0.0485591241 C49.6854365,0.0485591241 0.000108029197,49.7338876 0.000108029197,111.024253 C0.000108029197,172.314618 49.6854365,221.999946 110.975801,221.999946 C172.266166,221.999946 221.951495,172.314618 221.951495,111.024253" id="Logo-Exterior" fill="#B4D93E" sketch:type="MSShapeGroup"></path>
                <path d="M179.918232,171.315837 C179.918232,171.315837 161.419275,133.289217 191.464317,102.494794 C191.448683,102.449456 191.435655,102.404118 191.420021,102.358259 L191.558641,102.39578 C191.526331,102.429132 191.496106,102.461963 191.464317,102.494794 C206.24243,147.057907 179.918232,171.315837 179.918232,171.315837 M145.486866,177.645442 C145.486866,177.645442 136.170683,137.743287 169.696331,118.123907 C169.691641,118.077527 169.688514,118.032189 169.683303,117.985808 L169.801599,118.06033 C169.766162,118.081175 169.732289,118.103062 169.696331,118.123907 C174.319246,162.934555 145.486866,177.645442 145.486866,177.645442 M116.739951,179.665851 C116.739951,179.665851 112.508923,143.153625 144.037092,130.60333 C144.037613,130.562161 144.039176,130.522555 144.039697,130.481907 L144.135063,130.562682 C144.101711,130.57571 144.070444,130.590301 144.037092,130.60333 C143.63843,170.780118 116.739951,179.665851 116.739951,179.665851 M89.6179085,174.405076 C89.6179085,174.405076 91.2235,142.075935 120.196063,137.684921 C120.202838,137.649485 120.209613,137.615611 120.215866,137.580696 L120.289345,137.669808 C120.258077,137.673977 120.227852,137.680231 120.196063,137.684921 C114.079077,172.227808 89.6179085,174.405076 89.6179085,174.405076 M64.7163873,154.996231 C64.7163873,154.996231 73.6193169,131.839963 99.1878803,136.350315 C99.2003873,136.322175 99.2134155,136.295597 99.2254014,136.267456 L99.2629225,136.362823 C99.2379085,136.358132 99.2134155,136.354485 99.1878803,136.350315 C87.3973873,163.229513 64.7163873,154.996231 64.7163873,154.996231 M40.5517394,131.423062 C40.5517394,131.423062 57.0287254,115.520879 78.1567676,133.252217 C78.1776127,133.233977 77.9967817,133.217823 77.9967817,133.199062 L77.9967817,133.30433 C77.9967817,133.28609 78.1776127,133.269935 78.1567676,133.252217 C57.4659507,150.934048 40.5517394,131.423062 40.5517394,131.423062 M22.4295563,100.499921 C22.4295563,100.499921 42.2870915,95.2813577 50.8445141,119.213062 C50.8669225,119.210977 50.8877676,119.210456 50.9101761,119.208372 L50.8716127,119.284456 C50.8627535,119.259963 50.8533732,119.237034 50.8445141,119.213062 C28.7294577,121.015118 22.4295563,100.499921 22.4295563,100.499921 M75.5740634,124.099668 C75.6006408,124.101752 75.6261761,124.105921 75.6522324,124.109048 L75.5943873,124.190344 C75.5876127,124.159597 75.580838,124.130414 75.5740634,124.099668 C49.8444718,121.204287 45.8432606,96.1870761 45.8432606,96.1870761 C45.8432606,96.1870761 69.5154437,94.6419352 75.5740634,124.099668 M100.136331,125.448865 C100.164993,125.451992 100.193134,125.456682 100.221796,125.459808 L100.158218,125.551527 C100.151444,125.516611 100.143106,125.48378 100.136331,125.448865 C71.7875563,122.259569 67.3767394,94.694569 67.3767394,94.694569 C67.3767394,94.694569 93.4612183,92.9946535 100.136331,125.448865 M123.235796,123.394583 C123.2655,123.398231 123.294162,123.402921 123.323866,123.405527 L123.258725,123.501414 C123.25143,123.465456 123.243092,123.430541 123.235796,123.394583 C93.7212606,120.075527 89.1337817,91.3807239 89.1337817,91.3807239 C89.1337817,91.3807239 116.284486,89.6078507 123.235796,123.394583 M144.388852,114.254541 C144.423768,114.25871 144.456599,114.2634 144.490993,114.267048 L144.414908,114.372315 C144.40657,114.332189 144.39719,114.294146 144.388852,114.254541 C110.800148,110.473245 105.578458,77.8173577 105.578458,77.8173577 C105.578458,77.8173577 136.480232,75.7990338 144.388852,114.254541 M166.596669,102.546907 C166.63419,102.552639 166.670669,102.559414 166.70819,102.564625 L166.622204,102.680837 C166.613866,102.635499 166.604486,102.592245 166.596669,102.546907 C129.424176,97.165231 124.44012,60.7483718 124.44012,60.7483718 C124.44012,60.7483718 158.778725,59.6008507 166.596669,102.546907 M190.07812,84.2574423 C190.121373,84.260569 190.163585,84.2652592 190.207359,84.2683859 L190.11512,84.4075268 C190.103134,84.3569775 190.090106,84.3085127 190.07812,84.2574423 C147.750641,81.3391324 139.93843,40.608907 139.93843,40.608907 C139.93843,40.608907 178.669092,36.3945549 190.07812,84.2574423 M211.612641,92.4849915 C210.96957,89.0617099 210.154528,85.6994 209.176373,82.4074423 C162.494359,128.636076 124.794486,132.970287 96.395162,132.213611 C96.1314718,132.206837 95.174162,132.05102 94.9203732,131.477259 C94.9203732,131.477259 94.5055563,129.616837 95.7176972,129.616837 C150.054021,129.616837 181.077218,97.7520197 206.398768,74.315907 C204.980782,70.701893 203.35643,67.191062 201.548641,63.7938366 C174.634007,56.1963296 164.17812,34.1417239 160.420275,22.2803577 C146.062711,14.4707521 129.605528,10.0338789 112.111824,10.0338789 C56.192838,10.0338789 10.8615845,55.3651324 10.8615845,111.284118 C10.8615845,167.202583 56.192838,212.534358 112.111824,212.534358 C153.399134,212.534358 188.909754,187.818879 204.669148,152.37809 C200.375585,138.844949 196.954908,115.693893 211.612641,92.4849915" id="Logo-Interior" fill="#737362" sketch:type="MSShapeGroup"></path>
            </g>
            <g id="outer-border" sketch:type="MSLayerGroup" transform="translate(277.409784, 20.096747)">
                <mask id="mask-6" sketch:name="Clip 2" fill="white">
                    <use xlink:href="#path-5"></use>
                </mask>
                <g id="Clip-2"></g>
                <path d="M103.916263,80.4354796 C103.916263,84.5617041 100.770201,89.988949 97.1853687,92.0512959 L61.6888603,112.470276 C59.9721844,113.455684 57.519,114.02201 54.9570447,114.02201 C52.3960112,114.02201 49.941905,113.455684 48.2273799,112.470276 L12.7311788,92.0512959 C9.14511732,89.988949 6.00028492,84.5617041 6.00028492,80.4354796 L6.00028492,39.5987449 C6.00028492,35.4737449 9.14511732,30.0480306 12.7311788,27.9859898 L48.2273799,7.56792857 C49.941905,6.57915306 52.3960112,6.01496939 54.9570447,6.01496939 C57.519,6.01496939 59.9721844,6.57915306 61.6888603,7.56792857 L97.1853687,27.9859898 C100.770201,30.0480306 103.916263,35.4737449 103.916263,39.5987449 L103.916263,80.4354796 Z M100.184559,22.8094592 L64.6886648,2.39109184 C62.0498939,0.873030612 58.5950335,0.037622449 54.9570447,0.037622449 C51.3202849,0.037622449 47.8663464,0.873030612 45.2278827,2.39109184 L9.73045251,22.8094592 C4.2740838,25.9475204 6.1452514e-05,33.3207857 6.1452514e-05,39.5987449 L6.1452514e-05,80.4354796 C6.1452514e-05,86.7149694 4.2740838,94.0891531 9.73045251,97.2272143 L45.2278827,117.646806 C47.8663464,119.164867 51.3202849,119.999969 54.9570447,119.999969 C58.5950335,119.999969 62.0498939,119.164867 64.6886648,117.646806 L100.184559,97.2272143 C105.642464,94.0891531 109.91495,86.7149694 109.91495,80.4354796 L109.91495,39.5987449 C109.91495,33.3220102 105.642464,25.9475204 100.184559,22.8094592 L100.184559,22.8094592 Z" id="Fill-1" fill="#221F20" sketch:type="MSShapeGroup" mask="url(#mask-6)"></path>
            </g>
            <g id="inner-border" sketch:type="MSLayerGroup" transform="translate(281.251116, 24.142385)">
                <mask id="mask-8" sketch:name="Clip 2" fill="white">
                    <use xlink:href="#path-7"></use>
                </mask>
                <g id="Clip-2"></g>
                <path d="M95.8531089,74.69833 C95.8531089,78.498246 92.9531081,83.4962955 89.6486537,85.3955487 L56.9284085,104.199762 C55.3459977,105.107242 53.0846825,105.628783 50.7231036,105.628783 C48.3623744,105.628783 46.1002095,105.107242 44.5197813,104.199762 L11.7998194,85.3955487 C8.49423201,83.4962955 5.59536415,78.498246 5.59536415,74.69833 L5.59536415,37.091031 C5.59536415,33.2922427 8.49423201,28.2956028 11.7998194,26.3966315 L44.5197813,7.59326393 C46.1002095,6.6826824 48.3623744,6.16311529 50.7231036,6.16311529 C53.0846825,6.16311529 55.3459977,6.6826824 56.9284085,7.59326393 L89.6486537,26.3966315 C92.9531081,28.2956028 95.8531089,33.2922427 95.8531089,37.091031 L95.8531089,74.69833 Z M92.4132701,21.6294694 L59.6935914,2.82581989 C57.2612048,1.42780943 54.076557,0.658466706 50.7231036,0.658466706 C47.3707831,0.658466706 44.186985,1.42780943 41.7548816,2.82581989 L9.0337868,21.6294694 C4.00417318,24.5193676 0.0644319084,31.3095431 0.0644319084,37.091031 L0.0644319084,74.69833 C0.0644319084,80.4812275 4.00417318,87.2722487 9.0337868,90.1621469 L41.7548816,108.966924 C44.186985,110.364935 47.3707831,111.133995 50.7231036,111.133995 C54.076557,111.133995 57.2612048,110.364935 59.6935914,108.966924 L92.4132701,90.1621469 C97.4442999,87.2722487 101.382625,80.4812275 101.382625,74.69833 L101.382625,37.091031 C101.382625,31.3106707 97.4442999,24.5193676 92.4132701,21.6294694 L92.4132701,21.6294694 Z" id="Fill-1" fill="#737362" sketch:type="MSShapeGroup" mask="url(#mask-8)"></path>
                <path d="M88.6017542,24.7623338 L58.8734967,7.67782202 C56.6634928,6.40762571 53.7700039,5.70862072 50.7231425,5.70862072 C47.6773104,5.70862072 44.7845934,6.40762571 42.5748469,7.67782202 L12.8453027,24.7623338 C8.27552526,27.3880209 4.69597779,33.5573995 4.69597779,38.8103105 L4.69597779,72.979334 C4.69597779,78.2335258 8.27552526,84.4036728 12.8453027,87.0293599 L42.5748469,104.114896 C44.7845934,105.385093 47.6773104,106.083841 50.7231425,106.083841 C53.7700039,106.083841 56.6634928,105.385093 58.8734967,104.114896 L88.6017542,87.0293599 C93.1728183,84.4036728 96.7510791,78.2335258 96.7510791,72.979334 L96.7510791,38.8103105 C96.7510791,33.558424 93.1728183,27.3880209 88.6017542,24.7623338 Z" id="Fill-1-Copy" fill="#F2F2DC" sketch:type="MSShapeGroup" mask="url(#mask-8)"></path>
            </g>
            <path d="M338.474655,54 L338.474655,74.5818518 L357.593692,74.5818518 L357.593692,86.1201626 L338.474655,86.1201626 L338.474655,106.805963 L325.453041,106.805963 L325.453041,86.1201626 L306.43735,86.1201626 L306.43735,74.5818518 L325.453041,74.5818518 L325.453041,54 L338.474655,54 Z" id="+" fill="#B7E022" sketch:type="MSShapeGroup"></path>
        </g>
    </g>
</svg>